G75*
%MOIN*%
%OFA0B0*%
%FSLAX25Y25*%
%IPPOS*%
%LPD*%
%AMOC8*
5,1,8,0,0,1.08239X$1,22.5*
%
%ADD10OC8,0.06400*%
%ADD11C,0.06400*%
%ADD12C,0.10800*%
%ADD13OC8,0.10800*%
%ADD14C,0.06400*%
%ADD15C,0.07600*%
%ADD16R,0.07137X0.07137*%
%ADD17C,0.07137*%
%ADD18C,0.07200*%
%ADD19C,0.07924*%
%ADD20C,0.11824*%
D10*
X0032527Y0041000D03*
X0023527Y0061000D03*
X0043527Y0061000D03*
X0053527Y0056000D03*
X0093527Y0056000D03*
X0118527Y0076000D03*
X0128527Y0066000D03*
X0148527Y0066000D03*
X0148527Y0046000D03*
X0138527Y0046000D03*
X0128527Y0046000D03*
X0138527Y0026000D03*
X0067527Y0016000D03*
X0118527Y0096000D03*
X0128527Y0126000D03*
X0138527Y0126000D03*
X0138527Y0141000D03*
X0138527Y0151000D03*
X0123527Y0147000D03*
X0108527Y0126000D03*
X0087527Y0121000D03*
X0113527Y0176000D03*
X0123527Y0176000D03*
X0088527Y0185000D03*
X0093527Y0241000D03*
X0118527Y0251000D03*
X0118527Y0261000D03*
X0108527Y0276000D03*
X0108527Y0286000D03*
X0089527Y0281000D03*
X0053527Y0271000D03*
X0053527Y0291000D03*
X0024527Y0261000D03*
X0023527Y0241000D03*
X0043527Y0241000D03*
X0053527Y0241000D03*
X0138527Y0257000D03*
X0163527Y0261000D03*
X0163527Y0271000D03*
X0164527Y0246000D03*
X0168527Y0216000D03*
X0188527Y0216000D03*
X0213527Y0241000D03*
X0223527Y0241000D03*
X0238527Y0246000D03*
X0248527Y0246000D03*
X0247527Y0226000D03*
X0203527Y0156000D03*
X0193527Y0146000D03*
X0203527Y0136000D03*
X0213527Y0141000D03*
X0213527Y0121000D03*
X0223527Y0106000D03*
X0203527Y0106000D03*
X0173527Y0146000D03*
X0158527Y0141000D03*
X0158527Y0151000D03*
X0158527Y0126000D03*
X0238527Y0066000D03*
X0253527Y0056000D03*
X0238527Y0046000D03*
X0243527Y0036000D03*
X0253527Y0036000D03*
X0243527Y0016000D03*
X0293527Y0046000D03*
X0293527Y0066000D03*
X0298527Y0106000D03*
X0278527Y0106000D03*
D11*
X0239527Y0226000D03*
X0172527Y0246000D03*
X0138527Y0265000D03*
X0097527Y0281000D03*
X0032527Y0261000D03*
X0088527Y0177000D03*
X0123527Y0155000D03*
X0079527Y0121000D03*
X0024527Y0041000D03*
X0059527Y0016000D03*
D12*
X0038527Y0131000D03*
X0058527Y0176000D03*
D13*
X0038527Y0176000D03*
X0058527Y0131000D03*
D14*
X0103527Y0108800D02*
X0103527Y0103200D01*
X0115727Y0111000D02*
X0121327Y0111000D01*
X0128527Y0098800D02*
X0128527Y0093200D01*
X0138527Y0093200D02*
X0138527Y0098800D01*
X0148527Y0098800D02*
X0148527Y0093200D01*
X0158527Y0103200D02*
X0158527Y0108800D01*
X0151327Y0111000D02*
X0145727Y0111000D01*
X0170727Y0116000D02*
X0176327Y0116000D01*
X0173527Y0108800D02*
X0173527Y0103200D01*
X0188527Y0093800D02*
X0188527Y0088200D01*
X0183527Y0078800D02*
X0183527Y0073200D01*
X0173527Y0073200D02*
X0173527Y0078800D01*
X0158527Y0078800D02*
X0158527Y0073200D01*
X0183527Y0048800D02*
X0183527Y0043200D01*
X0198527Y0043200D02*
X0198527Y0048800D01*
X0198527Y0073200D02*
X0198527Y0078800D01*
X0208527Y0083200D02*
X0208527Y0088800D01*
X0218527Y0088800D02*
X0218527Y0083200D01*
X0228527Y0083200D02*
X0228527Y0088800D01*
X0238527Y0093200D02*
X0238527Y0098800D01*
X0248527Y0098800D02*
X0248527Y0093200D01*
X0263527Y0103200D02*
X0263527Y0108800D01*
X0253527Y0113200D02*
X0253527Y0118800D01*
X0265727Y0121000D02*
X0271327Y0121000D01*
X0253527Y0143200D02*
X0253527Y0148800D01*
X0238527Y0128800D02*
X0238527Y0123200D01*
X0280727Y0091000D02*
X0286327Y0091000D01*
X0286327Y0081000D02*
X0280727Y0081000D01*
X0280727Y0071000D02*
X0286327Y0071000D01*
X0263527Y0073200D02*
X0263527Y0078800D01*
X0248527Y0068800D02*
X0248527Y0063200D01*
X0188527Y0118200D02*
X0188527Y0123800D01*
X0176327Y0126000D02*
X0170727Y0126000D01*
X0170727Y0136000D02*
X0176327Y0136000D01*
X0161327Y0196000D02*
X0155727Y0196000D01*
X0155727Y0206000D02*
X0161327Y0206000D01*
X0161327Y0216000D02*
X0155727Y0216000D01*
X0155727Y0226000D02*
X0161327Y0226000D01*
X0175727Y0231000D02*
X0181327Y0231000D01*
X0205727Y0231000D02*
X0211327Y0231000D01*
X0211327Y0201000D02*
X0205727Y0201000D01*
X0181327Y0201000D02*
X0175727Y0201000D01*
X0131327Y0196000D02*
X0125727Y0196000D01*
X0125727Y0206000D02*
X0131327Y0206000D01*
X0131327Y0216000D02*
X0125727Y0216000D01*
X0125727Y0226000D02*
X0131327Y0226000D01*
X0103527Y0223800D02*
X0103527Y0218200D01*
X0103527Y0233200D02*
X0103527Y0238800D01*
X0103527Y0263200D02*
X0103527Y0268800D01*
X0180727Y0266000D02*
X0186327Y0266000D01*
X0210727Y0266000D02*
X0216327Y0266000D01*
X0225727Y0266000D02*
X0231327Y0266000D01*
X0255727Y0266000D02*
X0261327Y0266000D01*
X0295727Y0121000D02*
X0301327Y0121000D01*
X0103527Y0078800D02*
X0103527Y0073200D01*
X0103527Y0188200D02*
X0103527Y0193800D01*
D15*
X0108527Y0161000D03*
X0108527Y0146000D03*
X0068527Y0146000D03*
X0068527Y0161000D03*
X0088527Y0261000D03*
X0048527Y0261000D03*
X0048527Y0036000D03*
X0088527Y0036000D03*
D16*
X0043527Y0091000D03*
X0048527Y0216000D03*
D17*
X0058527Y0216000D03*
X0068527Y0216000D03*
X0063527Y0091000D03*
X0053527Y0091000D03*
D18*
X0105327Y0056000D02*
X0111727Y0056000D01*
X0111727Y0046000D02*
X0105327Y0046000D01*
X0105327Y0036000D02*
X0111727Y0036000D01*
X0165327Y0036000D02*
X0171727Y0036000D01*
X0171727Y0046000D02*
X0165327Y0046000D01*
X0165327Y0056000D02*
X0171727Y0056000D01*
X0215327Y0056000D02*
X0221727Y0056000D01*
X0221727Y0046000D02*
X0215327Y0046000D01*
X0215327Y0036000D02*
X0221727Y0036000D01*
X0270327Y0036000D02*
X0276727Y0036000D01*
X0276727Y0046000D02*
X0270327Y0046000D01*
X0270327Y0056000D02*
X0276727Y0056000D01*
D19*
X0213527Y0019562D02*
X0213527Y0012438D01*
X0203527Y0012438D02*
X0203527Y0019562D01*
X0193527Y0019562D02*
X0193527Y0012438D01*
X0027089Y0146000D02*
X0019964Y0146000D01*
X0019964Y0156000D02*
X0027089Y0156000D01*
X0064964Y0276000D02*
X0072089Y0276000D01*
X0072089Y0286000D02*
X0064964Y0286000D01*
X0128527Y0282438D02*
X0128527Y0289562D01*
X0138527Y0289562D02*
X0138527Y0282438D01*
X0148527Y0282438D02*
X0148527Y0289562D01*
X0198527Y0289562D02*
X0198527Y0282438D01*
X0208527Y0282438D02*
X0208527Y0289562D01*
X0218527Y0289562D02*
X0218527Y0282438D01*
D20*
X0028527Y0016000D03*
X0293527Y0016000D03*
X0293527Y0286000D03*
X0028527Y0286000D03*
M02*
