%
M48
M72
T01C0.02000
T02C0.03200
T03C0.03937
T04C0.04000
T05C0.04400
T06C0.04724
T07C0.11024
%
T01
X137127Y202200
T02
X128527Y206000
X128527Y216000
X128527Y226000
X103527Y221000
X103527Y236000
X93527Y241000
X118527Y251000
X118527Y261000
X103527Y266000
X108527Y276000
X108527Y286000
X97527Y281000
X89527Y281000
X53527Y271000
X53527Y291000
X32527Y261000
X24527Y261000
X23527Y241000
X43527Y241000
X53527Y241000
X103527Y191000
X88527Y185000
X88527Y177000
X113527Y176000
X123527Y176000
X128527Y196000
X158527Y196000
X158527Y206000
X158527Y216000
X168527Y216000
X158527Y226000
X178527Y231000
X172527Y246000
X164527Y246000
X163527Y261000
X163527Y271000
X183527Y266000
X213527Y266000
X228527Y266000
X238527Y246000
X248527Y246000
X247527Y226000
X239527Y226000
X223527Y241000
X213527Y241000
X208527Y231000
X188527Y216000
X178527Y201000
X208527Y201000
X203527Y156000
X193527Y146000
X203527Y136000
X213527Y141000
X213527Y121000
X223527Y106000
X238527Y96000
X248527Y96000
X263527Y106000
X253527Y116000
X238527Y126000
X253527Y146000
X268527Y121000
X278527Y106000
X283527Y91000
X283527Y81000
X283527Y71000
X293527Y66000
X293527Y46000
X263527Y76000
X248527Y66000
X238527Y66000
X253527Y56000
X238527Y46000
X243527Y36000
X253527Y36000
X243527Y16000
X198527Y46000
X183527Y46000
X183527Y76000
X173527Y76000
X158527Y76000
X148527Y66000
X148527Y46000
X138527Y46000
X128527Y46000
X128527Y66000
X118527Y76000
X103527Y76000
X118527Y96000
X128527Y96000
X138527Y96000
X148527Y96000
X158527Y106000
X148527Y111000
X158527Y126000
X173527Y126000
X173527Y116000
X173527Y106000
X188527Y91000
X198527Y76000
X208527Y86000
X218527Y86000
X228527Y86000
X203527Y106000
X188527Y121000
X173527Y136000
X173527Y146000
X158527Y141000
X158527Y151000
X138527Y151000
X138527Y141000
X138527Y126000
X128527Y126000
X118527Y111000
X103527Y106000
X108527Y126000
X87527Y121000
X79527Y121000
X123527Y147000
X123527Y155000
X43527Y61000
X53527Y56000
X32527Y41000
X24527Y41000
X23527Y61000
X59527Y16000
X67527Y16000
X93527Y56000
X138527Y26000
X298527Y106000
X298527Y121000
X258527Y266000
X138527Y265000
X138527Y257000
T03
X68527Y216000
X58527Y216000
X48527Y216000
X53527Y91000
X63527Y91000
X43527Y91000
T04
X38527Y131000
X58527Y131000
X58527Y176000
X38527Y176000
X108527Y56000
X108527Y46000
X108527Y36000
X168527Y36000
X168527Y46000
X168527Y56000
X218527Y56000
X218527Y46000
X218527Y36000
X273527Y36000
X273527Y46000
X273527Y56000
T05
X108527Y146000
X108527Y161000
X68527Y161000
X68527Y146000
X88527Y36000
X48527Y36000
X48527Y261000
X88527Y261000
T06
X68527Y276000
X68527Y286000
X128527Y286000
X138527Y286000
X148527Y286000
X198527Y286000
X208527Y286000
X218527Y286000
X23527Y156000
X23527Y146000
X193527Y16000
X203527Y16000
X213527Y16000
T07
X28527Y16000
X293527Y16000
X293527Y286000
X28527Y286000
M30
