G75*
%MOIN*%
%OFA0B0*%
%FSLAX25Y25*%
%IPPOS*%
%LPD*%
%AMOC8*
5,1,8,0,0,1.08239X$1,22.5*
%
%ADD10OC8,0.05600*%
%ADD11C,0.05600*%
%ADD12C,0.10000*%
%ADD13OC8,0.10000*%
%ADD14C,0.05600*%
%ADD15C,0.06800*%
%ADD16R,0.06337X0.06337*%
%ADD17C,0.06337*%
%ADD18C,0.06400*%
%ADD19C,0.07124*%
%ADD20C,0.03000*%
%ADD21C,0.00800*%
%ADD22C,0.04000*%
D10*
X0032527Y0041000D03*
X0023527Y0061000D03*
X0043527Y0061000D03*
X0053527Y0056000D03*
X0093527Y0056000D03*
X0118527Y0076000D03*
X0128527Y0066000D03*
X0148527Y0066000D03*
X0148527Y0046000D03*
X0138527Y0046000D03*
X0128527Y0046000D03*
X0138527Y0026000D03*
X0067527Y0016000D03*
X0118527Y0096000D03*
X0128527Y0126000D03*
X0138527Y0126000D03*
X0138527Y0141000D03*
X0138527Y0151000D03*
X0123527Y0147000D03*
X0108527Y0126000D03*
X0087527Y0121000D03*
X0113527Y0176000D03*
X0123527Y0176000D03*
X0088527Y0185000D03*
X0093527Y0241000D03*
X0118527Y0251000D03*
X0118527Y0261000D03*
X0108527Y0276000D03*
X0108527Y0286000D03*
X0089527Y0281000D03*
X0053527Y0271000D03*
X0053527Y0291000D03*
X0024527Y0261000D03*
X0023527Y0241000D03*
X0043527Y0241000D03*
X0053527Y0241000D03*
X0138527Y0257000D03*
X0163527Y0261000D03*
X0163527Y0271000D03*
X0164527Y0246000D03*
X0168527Y0216000D03*
X0188527Y0216000D03*
X0213527Y0241000D03*
X0223527Y0241000D03*
X0238527Y0246000D03*
X0248527Y0246000D03*
X0247527Y0226000D03*
X0203527Y0156000D03*
X0193527Y0146000D03*
X0203527Y0136000D03*
X0213527Y0141000D03*
X0213527Y0121000D03*
X0223527Y0106000D03*
X0203527Y0106000D03*
X0173527Y0146000D03*
X0158527Y0141000D03*
X0158527Y0151000D03*
X0158527Y0126000D03*
X0238527Y0066000D03*
X0253527Y0056000D03*
X0238527Y0046000D03*
X0243527Y0036000D03*
X0253527Y0036000D03*
X0243527Y0016000D03*
X0293527Y0046000D03*
X0293527Y0066000D03*
X0298527Y0106000D03*
X0278527Y0106000D03*
D11*
X0024527Y0041000D03*
X0059527Y0016000D03*
X0079527Y0121000D03*
X0123527Y0155000D03*
X0088527Y0177000D03*
X0172527Y0246000D03*
X0138527Y0265000D03*
X0097527Y0281000D03*
X0032527Y0261000D03*
X0239527Y0226000D03*
D12*
X0058527Y0176000D03*
X0038527Y0131000D03*
D13*
X0058527Y0131000D03*
X0038527Y0176000D03*
D14*
X0103527Y0188200D02*
X0103527Y0193800D01*
X0125727Y0196000D02*
X0131327Y0196000D01*
X0131327Y0206000D02*
X0125727Y0206000D01*
X0125727Y0216000D02*
X0131327Y0216000D01*
X0131327Y0226000D02*
X0125727Y0226000D01*
X0103527Y0223800D02*
X0103527Y0218200D01*
X0103527Y0233200D02*
X0103527Y0238800D01*
X0103527Y0263200D02*
X0103527Y0268800D01*
X0155727Y0226000D02*
X0161327Y0226000D01*
X0161327Y0216000D02*
X0155727Y0216000D01*
X0155727Y0206000D02*
X0161327Y0206000D01*
X0161327Y0196000D02*
X0155727Y0196000D01*
X0175727Y0201000D02*
X0181327Y0201000D01*
X0205727Y0201000D02*
X0211327Y0201000D01*
X0211327Y0231000D02*
X0205727Y0231000D01*
X0181327Y0231000D02*
X0175727Y0231000D01*
X0180727Y0266000D02*
X0186327Y0266000D01*
X0210727Y0266000D02*
X0216327Y0266000D01*
X0225727Y0266000D02*
X0231327Y0266000D01*
X0255727Y0266000D02*
X0261327Y0266000D01*
X0253527Y0148800D02*
X0253527Y0143200D01*
X0238527Y0128800D02*
X0238527Y0123200D01*
X0253527Y0118800D02*
X0253527Y0113200D01*
X0263527Y0108800D02*
X0263527Y0103200D01*
X0248527Y0098800D02*
X0248527Y0093200D01*
X0238527Y0093200D02*
X0238527Y0098800D01*
X0228527Y0088800D02*
X0228527Y0083200D01*
X0218527Y0083200D02*
X0218527Y0088800D01*
X0208527Y0088800D02*
X0208527Y0083200D01*
X0198527Y0078800D02*
X0198527Y0073200D01*
X0183527Y0073200D02*
X0183527Y0078800D01*
X0173527Y0078800D02*
X0173527Y0073200D01*
X0158527Y0073200D02*
X0158527Y0078800D01*
X0148527Y0093200D02*
X0148527Y0098800D01*
X0138527Y0098800D02*
X0138527Y0093200D01*
X0128527Y0093200D02*
X0128527Y0098800D01*
X0121327Y0111000D02*
X0115727Y0111000D01*
X0103527Y0108800D02*
X0103527Y0103200D01*
X0103527Y0078800D02*
X0103527Y0073200D01*
X0145727Y0111000D02*
X0151327Y0111000D01*
X0158527Y0108800D02*
X0158527Y0103200D01*
X0170727Y0116000D02*
X0176327Y0116000D01*
X0173527Y0108800D02*
X0173527Y0103200D01*
X0188527Y0093800D02*
X0188527Y0088200D01*
X0188527Y0118200D02*
X0188527Y0123800D01*
X0176327Y0126000D02*
X0170727Y0126000D01*
X0170727Y0136000D02*
X0176327Y0136000D01*
X0248527Y0068800D02*
X0248527Y0063200D01*
X0263527Y0073200D02*
X0263527Y0078800D01*
X0280727Y0081000D02*
X0286327Y0081000D01*
X0286327Y0071000D02*
X0280727Y0071000D01*
X0280727Y0091000D02*
X0286327Y0091000D01*
X0295727Y0121000D02*
X0301327Y0121000D01*
X0271327Y0121000D02*
X0265727Y0121000D01*
X0198527Y0048800D02*
X0198527Y0043200D01*
X0183527Y0043200D02*
X0183527Y0048800D01*
D15*
X0088527Y0036000D03*
X0048527Y0036000D03*
X0068527Y0146000D03*
X0068527Y0161000D03*
X0108527Y0161000D03*
X0108527Y0146000D03*
X0088527Y0261000D03*
X0048527Y0261000D03*
D16*
X0048527Y0216000D03*
X0043527Y0091000D03*
D17*
X0053527Y0091000D03*
X0063527Y0091000D03*
X0068527Y0216000D03*
X0058527Y0216000D03*
D18*
X0105327Y0056000D02*
X0111727Y0056000D01*
X0111727Y0046000D02*
X0105327Y0046000D01*
X0105327Y0036000D02*
X0111727Y0036000D01*
X0165327Y0036000D02*
X0171727Y0036000D01*
X0171727Y0046000D02*
X0165327Y0046000D01*
X0165327Y0056000D02*
X0171727Y0056000D01*
X0215327Y0056000D02*
X0221727Y0056000D01*
X0221727Y0046000D02*
X0215327Y0046000D01*
X0215327Y0036000D02*
X0221727Y0036000D01*
X0270327Y0036000D02*
X0276727Y0036000D01*
X0276727Y0046000D02*
X0270327Y0046000D01*
X0270327Y0056000D02*
X0276727Y0056000D01*
D19*
X0213527Y0019562D02*
X0213527Y0012438D01*
X0203527Y0012438D02*
X0203527Y0019562D01*
X0193527Y0019562D02*
X0193527Y0012438D01*
X0027089Y0146000D02*
X0019964Y0146000D01*
X0019964Y0156000D02*
X0027089Y0156000D01*
X0064964Y0276000D02*
X0072089Y0276000D01*
X0072089Y0286000D02*
X0064964Y0286000D01*
X0128527Y0282438D02*
X0128527Y0289562D01*
X0138527Y0289562D02*
X0138527Y0282438D01*
X0148527Y0282438D02*
X0148527Y0289562D01*
X0198527Y0289562D02*
X0198527Y0282438D01*
X0208527Y0282438D02*
X0208527Y0289562D01*
X0218527Y0289562D02*
X0218527Y0282438D01*
D20*
X0183527Y0266000D02*
X0183527Y0265800D01*
X0168527Y0250800D01*
X0163527Y0255800D01*
X0163527Y0261000D01*
X0162327Y0261800D01*
X0159527Y0264600D01*
X0139927Y0264600D01*
X0138527Y0265000D01*
X0123527Y0265000D01*
X0119927Y0261400D01*
X0118527Y0261000D01*
X0108327Y0261000D01*
X0103527Y0265800D01*
X0103527Y0266000D01*
X0097527Y0273000D02*
X0090927Y0266400D01*
X0071527Y0285800D01*
X0068727Y0285800D01*
X0068527Y0286000D01*
X0089527Y0265000D02*
X0089527Y0262200D01*
X0088527Y0261000D01*
X0088727Y0261000D01*
X0093527Y0256200D01*
X0093527Y0241000D01*
X0092327Y0240200D01*
X0084327Y0240200D01*
X0060327Y0216200D01*
X0058727Y0216200D01*
X0058527Y0216000D01*
X0103527Y0191000D02*
X0113527Y0181000D01*
X0128527Y0196000D01*
X0113527Y0181000D02*
X0113527Y0176000D01*
X0113927Y0174600D01*
X0114727Y0173800D01*
X0114727Y0155800D01*
X0123527Y0147000D01*
X0121527Y0147000D01*
X0089127Y0114600D01*
X0089127Y0092200D01*
X0088327Y0091000D01*
X0102327Y0077000D01*
X0103527Y0076000D01*
X0103127Y0074600D01*
X0103127Y0062200D01*
X0097927Y0057000D01*
X0097127Y0055800D01*
X0102127Y0050800D01*
X0092127Y0040800D01*
X0126727Y0006200D01*
X0241927Y0006200D01*
X0266927Y0031200D01*
X0267927Y0030200D01*
X0279127Y0030200D01*
X0293527Y0044600D01*
X0293527Y0046000D01*
X0293927Y0047400D01*
X0303927Y0057400D01*
X0303927Y0108200D01*
X0298727Y0113400D01*
X0298727Y0121000D01*
X0298527Y0121000D01*
X0297927Y0122200D01*
X0247927Y0172200D01*
X0247927Y0224600D01*
X0247527Y0226000D01*
X0247527Y0245000D01*
X0248527Y0246000D01*
X0249127Y0247400D01*
X0258327Y0256600D01*
X0258327Y0265800D01*
X0258527Y0266000D01*
X0178527Y0231000D02*
X0177527Y0232200D01*
X0172727Y0237000D01*
X0172727Y0245800D01*
X0172527Y0246000D01*
X0171927Y0247400D01*
X0168527Y0250800D01*
X0178327Y0231000D02*
X0178527Y0231000D01*
X0178327Y0231000D02*
X0173527Y0226200D01*
X0158727Y0226200D01*
X0158527Y0226000D01*
X0097527Y0273000D02*
X0097527Y0281000D01*
X0090927Y0266400D02*
X0089527Y0265000D01*
X0193527Y0146000D02*
X0193527Y0138200D01*
X0203527Y0128200D01*
X0203527Y0106000D01*
X0173527Y0076000D02*
X0173527Y0062600D01*
X0177527Y0058600D01*
X0177527Y0053400D01*
X0170327Y0046200D01*
X0168727Y0046200D01*
X0168527Y0046000D01*
X0167127Y0046200D01*
X0159527Y0038600D01*
X0159527Y0033400D01*
X0162727Y0030200D01*
X0193127Y0030200D01*
X0208727Y0045800D01*
X0218327Y0045800D01*
X0218527Y0046000D01*
X0264327Y0038200D02*
X0264327Y0033800D01*
X0266927Y0031200D01*
X0264327Y0038200D02*
X0271927Y0045800D01*
X0273527Y0045800D01*
X0273527Y0046000D01*
X0118527Y0076000D02*
X0118327Y0076200D01*
X0103527Y0076200D01*
X0103527Y0076000D01*
X0088327Y0091000D02*
X0063527Y0091000D01*
X0093527Y0056000D02*
X0093527Y0055800D01*
X0097127Y0055800D01*
X0102127Y0050800D02*
X0106727Y0046200D01*
X0108327Y0046200D01*
X0108527Y0046000D01*
X0092127Y0040800D02*
X0088727Y0037400D01*
X0088527Y0036000D01*
X0068727Y0016200D01*
X0067527Y0016200D01*
X0067527Y0016000D01*
D21*
X0032727Y0041000D02*
X0032727Y0050200D01*
X0043527Y0061000D01*
X0043527Y0091000D01*
X0053527Y0091000D02*
X0053527Y0126200D01*
X0058327Y0131000D01*
X0058527Y0131000D01*
X0075527Y0131000D01*
X0084527Y0122000D01*
X0108527Y0146000D01*
X0108527Y0161000D02*
X0108327Y0161000D01*
X0092327Y0177000D01*
X0088527Y0177000D01*
X0076727Y0177000D01*
X0068127Y0185600D01*
X0068327Y0185800D01*
X0068327Y0215800D01*
X0068527Y0216000D01*
X0048727Y0216200D02*
X0048527Y0216000D01*
X0048727Y0216200D02*
X0048727Y0241000D01*
X0053527Y0241000D01*
X0048727Y0241000D02*
X0043527Y0241000D01*
X0032727Y0251800D01*
X0032727Y0261000D01*
X0032527Y0261000D01*
X0053527Y0290200D02*
X0067527Y0276200D01*
X0068327Y0276200D01*
X0068527Y0276000D01*
X0053527Y0290200D02*
X0053527Y0291000D01*
X0099127Y0270600D02*
X0099127Y0240600D01*
X0103527Y0236200D01*
X0103527Y0236000D01*
X0103527Y0221000D01*
X0118327Y0206200D01*
X0128327Y0206200D01*
X0128527Y0206000D01*
X0137127Y0202200D02*
X0137127Y0158600D01*
X0154327Y0141400D01*
X0154327Y0139000D01*
X0163127Y0130200D01*
X0188327Y0130200D01*
X0192727Y0125800D01*
X0192727Y0095000D01*
X0188727Y0091000D01*
X0188527Y0091000D01*
X0188727Y0091000D02*
X0188727Y0085800D01*
X0198527Y0076000D01*
X0208527Y0086000D02*
X0208727Y0086200D01*
X0208727Y0091000D01*
X0223527Y0105800D01*
X0223527Y0106000D01*
X0227927Y0107800D02*
X0227927Y0104200D01*
X0218727Y0095000D01*
X0218727Y0086200D01*
X0218527Y0086000D01*
X0228527Y0086000D02*
X0248527Y0066000D01*
X0218527Y0036000D01*
X0215527Y0024600D02*
X0211527Y0024600D01*
X0203527Y0016600D01*
X0203527Y0016000D01*
X0193527Y0016000D02*
X0193527Y0016200D01*
X0183927Y0025800D01*
X0138727Y0025800D01*
X0138527Y0026000D01*
X0140327Y0041800D02*
X0136727Y0041800D01*
X0134327Y0044200D01*
X0134327Y0046200D01*
X0124727Y0055800D01*
X0108727Y0055800D01*
X0108527Y0056000D01*
X0118327Y0045800D02*
X0108527Y0036000D01*
X0118327Y0045800D02*
X0128327Y0045800D01*
X0128527Y0046000D01*
X0138527Y0046000D02*
X0138727Y0046200D01*
X0138727Y0066200D01*
X0132727Y0066200D01*
X0132727Y0105800D01*
X0124327Y0114200D01*
X0124327Y0127800D01*
X0137527Y0141000D01*
X0138527Y0141000D01*
X0132727Y0125800D02*
X0128727Y0125800D01*
X0128527Y0126000D01*
X0132727Y0125800D02*
X0147527Y0111000D01*
X0148527Y0111000D01*
X0147127Y0111000D01*
X0138727Y0102600D01*
X0138727Y0096200D01*
X0138527Y0096000D01*
X0148527Y0096000D02*
X0148727Y0096200D01*
X0152727Y0096200D01*
X0152727Y0064200D01*
X0144327Y0055800D01*
X0144327Y0045800D01*
X0140327Y0041800D01*
X0148527Y0046000D02*
X0148727Y0046200D01*
X0158727Y0046200D01*
X0168527Y0056000D01*
X0178327Y0045800D02*
X0168527Y0036000D01*
X0178327Y0045800D02*
X0180327Y0045800D01*
X0180327Y0059800D01*
X0179127Y0061000D01*
X0179127Y0109400D01*
X0173527Y0115000D01*
X0173527Y0116000D01*
X0169527Y0121000D02*
X0188527Y0121000D01*
X0173527Y0126000D02*
X0173527Y0126200D01*
X0158727Y0126200D01*
X0158527Y0126000D01*
X0158727Y0125800D01*
X0158727Y0106200D01*
X0158527Y0106000D01*
X0166327Y0105000D02*
X0166327Y0117800D01*
X0169527Y0121000D01*
X0173527Y0106000D02*
X0173527Y0105800D01*
X0158727Y0091000D01*
X0158727Y0076200D01*
X0158527Y0076000D01*
X0148527Y0066000D02*
X0148327Y0066200D01*
X0138727Y0066200D01*
X0132727Y0066200D02*
X0128727Y0066200D01*
X0128527Y0066000D01*
X0128527Y0096000D02*
X0128327Y0096200D01*
X0118727Y0096200D01*
X0118527Y0096000D01*
X0113527Y0106200D02*
X0103527Y0106200D01*
X0103527Y0106000D01*
X0113527Y0106200D02*
X0118327Y0111000D01*
X0118527Y0111000D01*
X0087527Y0121000D02*
X0085527Y0121000D01*
X0084527Y0122000D01*
X0068527Y0146000D02*
X0068727Y0146200D01*
X0068727Y0156200D01*
X0023527Y0156200D01*
X0023527Y0156000D01*
X0058527Y0176000D02*
X0068127Y0185600D01*
X0068527Y0161000D02*
X0068727Y0161000D01*
X0068727Y0156200D01*
X0128527Y0216000D02*
X0158327Y0186200D01*
X0158327Y0151000D01*
X0158527Y0151000D01*
X0158727Y0151000D01*
X0158727Y0141000D01*
X0158527Y0141000D01*
X0173527Y0146000D02*
X0173527Y0136000D01*
X0203527Y0151000D02*
X0213527Y0141000D01*
X0217927Y0139400D02*
X0217927Y0161800D01*
X0178727Y0201000D01*
X0178527Y0201000D01*
X0178727Y0201000D02*
X0178727Y0206200D01*
X0188527Y0216000D01*
X0190327Y0220200D02*
X0201527Y0209000D01*
X0201527Y0198200D01*
X0253527Y0146200D01*
X0253527Y0146000D01*
X0253527Y0145800D01*
X0238727Y0131000D01*
X0238727Y0126200D01*
X0238527Y0126000D01*
X0253527Y0116200D02*
X0253527Y0116000D01*
X0253527Y0116200D02*
X0254727Y0116200D01*
X0263927Y0125400D01*
X0273127Y0125400D01*
X0283527Y0115000D01*
X0283527Y0091000D01*
X0297927Y0076600D01*
X0297927Y0060600D01*
X0273527Y0036200D01*
X0273527Y0036000D01*
X0273527Y0056000D02*
X0273527Y0056200D01*
X0253527Y0056200D01*
X0253527Y0056000D01*
X0252727Y0061400D02*
X0238727Y0047400D01*
X0238727Y0046200D01*
X0238527Y0046000D01*
X0238727Y0045800D01*
X0238727Y0041000D01*
X0243527Y0036200D01*
X0243527Y0036000D01*
X0243527Y0036200D02*
X0253527Y0036200D01*
X0253527Y0036000D01*
X0243527Y0016200D02*
X0243527Y0016000D01*
X0243527Y0016200D02*
X0223927Y0016200D01*
X0215527Y0024600D01*
X0198527Y0046000D02*
X0183527Y0061000D01*
X0183527Y0076000D01*
X0157527Y0096200D02*
X0166327Y0105000D01*
X0157527Y0096200D02*
X0152727Y0096200D01*
X0180327Y0045800D02*
X0183527Y0045800D01*
X0183527Y0046000D01*
X0218527Y0056000D02*
X0228327Y0065800D01*
X0238327Y0065800D01*
X0238527Y0066000D01*
X0252727Y0061400D02*
X0252727Y0070600D01*
X0234327Y0089000D01*
X0234327Y0103800D01*
X0217127Y0121000D01*
X0213527Y0121000D01*
X0209127Y0119400D02*
X0211927Y0116600D01*
X0219127Y0116600D01*
X0227927Y0107800D01*
X0238727Y0096200D02*
X0238527Y0096000D01*
X0238727Y0096200D02*
X0248327Y0096200D01*
X0248527Y0096000D01*
X0263527Y0106000D02*
X0263527Y0116200D01*
X0268327Y0121000D01*
X0268527Y0121000D01*
X0278527Y0106000D02*
X0278327Y0105800D01*
X0278327Y0094600D01*
X0276327Y0092600D01*
X0276327Y0087800D01*
X0283127Y0081000D01*
X0283527Y0081000D01*
X0278727Y0076200D01*
X0263527Y0076200D01*
X0263527Y0076000D01*
X0283527Y0071000D02*
X0288727Y0071000D01*
X0293527Y0066200D01*
X0293527Y0066000D01*
X0217927Y0139400D02*
X0209127Y0130600D01*
X0209127Y0119400D01*
X0203527Y0151000D02*
X0203527Y0156000D01*
X0203527Y0159800D01*
X0158727Y0204600D01*
X0158727Y0205800D01*
X0158527Y0206000D01*
X0151527Y0204200D02*
X0151527Y0217800D01*
X0155527Y0221800D01*
X0190327Y0221800D01*
X0209527Y0241000D01*
X0213527Y0241000D01*
X0213527Y0266000D01*
X0218727Y0266200D01*
X0218727Y0285800D01*
X0218527Y0286000D01*
X0218727Y0266200D02*
X0213527Y0266200D01*
X0213527Y0266000D01*
X0218727Y0266200D02*
X0228327Y0266200D01*
X0228527Y0266000D01*
X0208727Y0231000D02*
X0208527Y0231000D01*
X0208727Y0231000D02*
X0208727Y0201000D01*
X0208527Y0201000D01*
X0190327Y0220200D02*
X0166727Y0220200D01*
X0162727Y0216200D01*
X0158727Y0216200D01*
X0158527Y0216000D01*
X0151527Y0204200D02*
X0158327Y0197400D01*
X0158327Y0196200D01*
X0158527Y0196000D01*
X0099127Y0270600D02*
X0100327Y0271800D01*
X0100327Y0273800D01*
X0108327Y0281800D01*
X0108327Y0285800D01*
X0108527Y0286000D01*
X0108727Y0286200D01*
X0117927Y0286200D01*
X0126327Y0294600D01*
X0140727Y0294600D01*
X0148327Y0287000D01*
X0148327Y0286200D01*
X0148527Y0286000D01*
X0043527Y0061000D02*
X0043527Y0060600D01*
X0047927Y0056200D01*
X0053527Y0056200D01*
X0053527Y0056000D01*
X0032727Y0041000D02*
X0032527Y0041000D01*
D22*
X0137127Y0202200D03*
M02*
